<svg version="1.1" id="Layer_1" xmlns="http://www.w3.org/2000/svg" xmlns:xlink="http://www.w3.org/1999/xlink" x="0px" y="0px"
	 width="100%" viewBox="0 0 451 445" enable-background="new 0 0 451 445" xml:space="preserve">
<path fill="#FBFDFC" opacity="1.000000" stroke="none" 
	d="
M250.000000,446.000000 
	C166.689758,446.000000 83.879524,446.000000 1.069290,446.000000 
	C1.046194,445.856476 1.002854,445.712952 1.002851,445.569427 
	C0.999979,297.444061 1.000000,149.318726 1.000000,1.096684 
	C151.226898,1.096684 301.453888,1.096684 451.840454,1.096684 
	C451.840454,149.333191 451.840454,297.666595 451.840454,446.000000 
	C384.795563,446.000000 317.647766,446.000000 250.000000,446.000000 
M212.828247,71.717682 
	C210.047852,72.712540 207.267471,73.707397 204.080872,74.132423 
	C203.936615,73.949112 203.792358,73.765793 204.177261,73.056602 
	C204.750656,72.583839 205.324051,72.111076 206.605865,71.054214 
	C186.913986,72.401985 170.038147,63.963623 151.680527,60.273758 
	C152.629547,53.960484 152.919006,47.226505 154.785065,40.962181 
	C156.682373,34.592915 160.133514,28.686512 163.206268,21.911451 
	C154.506287,25.792582 146.352081,29.332771 138.310715,33.112961 
	C136.961853,33.747051 135.703522,35.243645 135.081573,36.643112 
	C131.603119,44.470093 128.333008,52.389671 124.757843,60.829742 
	C117.283539,61.191525 108.648750,61.543499 100.023949,62.061726 
	C96.886307,62.250252 93.150528,61.873276 90.762878,63.417168 
	C83.207771,68.302429 76.160866,73.973633 68.680138,79.516685 
	C87.535034,79.516685 105.710869,79.516685 124.477905,79.516685 
	C123.545219,92.879906 122.613434,106.230278 121.623337,120.416039 
	C130.621094,115.996414 138.838379,112.105034 146.865601,107.854637 
	C148.015488,107.245773 148.686478,104.941277 148.826416,103.355118 
	C149.389771,96.968719 149.657669,90.556259 150.069916,83.556152 
	C155.371185,84.895020 159.800339,86.430374 164.354767,87.061035 
	C170.387650,87.896431 176.713776,89.191635 182.566360,88.212326 
	C194.564621,86.204666 203.830093,78.030685 214.600006,71.970215 
	C214.616364,71.721214 214.632721,71.472221 214.649063,71.223213 
	C214.286652,71.356010 213.924225,71.488808 212.828247,71.717682 
M432.130402,243.686447 
	C427.532806,232.223053 419.224152,226.317520 406.708496,226.690414 
	C402.212341,226.824387 397.652008,226.485535 393.230743,227.123428 
	C382.007355,228.742722 370.865997,230.776428 362.187012,239.161880 
	C360.103760,241.174667 357.621216,242.774185 355.322327,244.563766 
	C354.812195,244.306839 354.302063,244.049927 353.791931,243.793015 
	C355.991333,233.249634 358.190765,222.706268 360.538879,211.449905 
	C356.844238,213.033234 353.310059,214.666931 349.676880,216.038559 
	C348.446960,216.502914 346.692505,216.844910 345.648773,216.315018 
	C341.238678,214.076111 337.012268,211.476791 332.707550,209.028778 
	C321.339325,202.563797 308.710663,199.270203 296.038239,198.976608 
	C263.407837,198.220673 230.745682,198.832077 198.096237,198.914383 
	C196.934464,198.917313 195.762939,199.036713 194.613159,199.213608 
	C179.988831,201.463364 165.372955,203.768433 150.744446,205.990494 
	C129.047836,209.286179 107.375084,212.765457 85.629524,215.702682 
	C72.235146,217.511917 58.724159,218.457947 45.268169,219.791290 
	C44.502483,216.763428 44.071785,215.060257 43.573780,213.090942 
	C36.182770,216.925919 29.072788,220.892059 21.710266,224.315002 
	C18.184544,225.954178 17.188377,227.909241 18.133900,231.557266 
	C22.217550,247.312866 25.337868,263.372253 30.354908,278.818878 
	C37.539330,300.938507 45.358040,322.973602 63.534256,339.259460 
	C66.301819,341.739227 68.278526,345.269073 70.110809,348.594330 
	C75.955925,359.202148 81.626411,369.907990 87.240929,380.640564 
	C93.833710,393.243134 104.931374,400.431488 117.734200,404.842773 
	C124.026154,407.010651 130.143875,408.243591 132.719666,415.338501 
	C133.075150,416.317596 134.278214,417.048950 135.196991,417.754181 
	C143.541504,424.159088 152.411179,428.485809 163.487946,428.310883 
	C189.636993,427.897858 215.821106,427.488953 241.943756,428.413788 
	C258.861176,429.012726 273.657715,424.186859 287.908875,416.112152 
	C305.942200,405.894470 320.197021,392.813110 326.334564,371.815155 
	C330.074585,359.019684 336.364899,346.969666 341.124542,335.511871 
	C345.286713,336.885864 348.511292,338.651642 351.864410,338.944305 
	C374.825195,340.948242 396.272552,336.021332 416.726746,325.289795 
	C429.642761,318.513275 437.506500,309.623077 435.800659,294.205017 
	C435.327148,289.925293 436.016296,285.525909 435.673523,281.221100 
	C434.697266,268.959686 433.464081,256.718750 432.130402,243.686447 
M311.844116,49.382317 
	C316.957428,35.779747 322.070709,22.177179 327.537506,7.634224 
	C318.427155,11.819533 310.164368,15.496984 302.046844,19.471188 
	C300.814697,20.074409 299.984039,21.952675 299.431885,23.416311 
	C295.683563,33.351994 291.912231,43.284275 288.480774,53.331192 
	C287.371368,56.579403 285.688202,57.399982 282.607086,56.765827 
	C278.209564,55.860718 273.794678,55.017292 269.359375,54.326145 
	C266.447235,53.872349 262.679138,52.439976 260.688599,53.681412 
	C252.741180,58.637936 245.339813,64.470024 236.492661,70.879036 
	C251.635040,72.639931 265.192627,74.216530 279.106384,75.834549 
	C274.815613,85.987755 270.439362,96.343292 265.572174,107.860474 
	C271.193390,105.443115 275.434235,103.040443 279.990997,101.779266 
	C289.740570,99.080872 295.304504,92.808563 297.967682,83.316299 
	C299.340149,78.424316 300.695587,73.042091 307.941193,74.768272 
	C308.216370,74.833824 308.616791,74.674515 308.868500,74.494019 
	C316.568115,68.972885 324.256439,63.435936 331.946503,57.901436 
	C331.777252,57.565468 331.607971,57.229496 331.438721,56.893524 
	C324.040161,56.893524 316.641632,56.893524 308.778107,56.893524 
	C309.800110,54.320774 310.643799,52.196922 311.844116,49.382317 
M137.499939,160.052704 
	C123.352356,160.052689 109.154236,160.793518 95.072151,159.833115 
	C82.354576,158.965759 71.655373,161.835358 62.494236,170.728424 
	C60.023823,173.126541 56.993599,174.947968 53.152828,177.837143 
	C68.381523,177.837143 82.010643,177.701721 95.635895,177.873352 
	C110.757538,178.063828 125.875481,178.543411 140.995758,178.862411 
	C141.951904,178.882584 143.128113,178.910278 143.841019,178.414978 
	C151.405304,173.159378 158.896439,167.798447 166.407700,162.466507 
	C166.314362,161.900070 166.221024,161.333618 166.127686,160.767181 
	C156.918396,160.529007 147.709122,160.290833 137.499939,160.052704 
M297.685669,136.199219 
	C302.975739,132.358246 308.265808,128.517273 313.684326,124.583038 
	C298.650116,123.640663 284.124908,122.354118 269.574341,121.921890 
	C254.446503,121.472519 239.294006,121.827286 224.152634,121.899200 
	C222.727142,121.905960 221.011322,121.985977 219.927032,122.743240 
	C212.646866,127.827751 205.501175,133.104782 197.853363,138.651978 
	C198.981979,138.980911 199.404297,139.203400 199.832077,139.214462 
	C227.414337,139.927673 255.000168,140.526428 282.577179,141.402435 
	C288.175812,141.580292 293.070801,140.707993 297.685669,136.199219 
z"/>
<path fill="#07059E" opacity="1.000000" stroke="none" 
	d="
M432.231201,244.078094 
	C433.464081,256.718750 434.697266,268.959686 435.673523,281.221100 
	C436.016296,285.525909 435.327148,289.925293 435.800659,294.205017 
	C437.506500,309.623077 429.642761,318.513275 416.726746,325.289795 
	C396.272552,336.021332 374.825195,340.948242 351.864410,338.944305 
	C348.511292,338.651642 345.286713,336.885864 341.124542,335.511871 
	C336.364899,346.969666 330.074585,359.019684 326.334564,371.815155 
	C320.197021,392.813110 305.942200,405.894470 287.908875,416.112152 
	C273.657715,424.186859 258.861176,429.012726 241.943756,428.413788 
	C215.821106,427.488953 189.636993,427.897858 163.487946,428.310883 
	C152.411179,428.485809 143.541504,424.159088 135.196991,417.754181 
	C134.278214,417.048950 133.075150,416.317596 132.719666,415.338501 
	C130.143875,408.243591 124.026154,407.010651 117.734200,404.842773 
	C104.931374,400.431488 93.833710,393.243134 87.240929,380.640564 
	C81.626411,369.907990 75.955925,359.202148 70.110809,348.594330 
	C68.278526,345.269073 66.301819,341.739227 63.534256,339.259460 
	C45.358040,322.973602 37.539330,300.938507 30.354908,278.818878 
	C25.337868,263.372253 22.217550,247.312866 18.133900,231.557266 
	C17.188377,227.909241 18.184544,225.954178 21.710266,224.315002 
	C29.072788,220.892059 36.182770,216.925919 43.573780,213.090942 
	C44.071785,215.060257 44.502483,216.763428 45.268169,219.791290 
	C58.724159,218.457947 72.235146,217.511917 85.629524,215.702682 
	C107.375084,212.765457 129.047836,209.286179 150.744446,205.990494 
	C165.372955,203.768433 179.988831,201.463364 194.613159,199.213608 
	C195.762939,199.036713 196.934464,198.917313 198.096237,198.914383 
	C230.745682,198.832077 263.407837,198.220673 296.038239,198.976608 
	C308.710663,199.270203 321.339325,202.563797 332.707550,209.028778 
	C337.012268,211.476791 341.238678,214.076111 345.648773,216.315018 
	C346.692505,216.844910 348.446960,216.502914 349.676880,216.038559 
	C353.310059,214.666931 356.844238,213.033234 360.538879,211.449905 
	C358.190765,222.706268 355.991333,233.249634 353.791931,243.793015 
	C354.302063,244.049927 354.812195,244.306839 355.322327,244.563766 
	C357.621216,242.774185 360.103760,241.174667 362.187012,239.161880 
	C370.865997,230.776428 382.007355,228.742722 393.230743,227.123428 
	C397.652008,226.485535 402.212341,226.824387 406.708496,226.690414 
	C419.224152,226.317520 427.532806,232.223053 432.231201,244.078094 
M171.009247,306.134674 
	C167.044540,305.754944 163.080902,305.363495 159.114899,304.997772 
	C148.890488,304.054932 138.668701,303.078430 128.435730,302.239136 
	C127.002876,302.121613 125.512962,302.699829 123.425308,302.688293 
	C123.038536,302.377869 122.678337,302.025055 122.261032,301.763275 
	C114.991264,297.202606 108.185692,289.777832 98.821320,297.922638 
	C98.612587,298.104187 98.181274,298.029846 97.038765,298.193909 
	C87.056297,295.585358 77.073837,292.976776 67.114174,290.374176 
	C71.050827,306.672180 83.533417,317.036346 94.152527,329.195435 
	C97.288986,326.791992 100.418701,324.393707 104.229454,322.143127 
	C109.387970,323.096710 114.533699,324.782440 119.707298,324.872864 
	C138.661346,325.203979 157.624680,324.999176 176.584503,325.008514 
	C181.123505,325.010742 185.662460,325.060669 190.650482,325.740204 
	C195.784424,326.116272 200.918350,326.492371 206.876678,326.994965 
	C216.969849,327.975464 227.052048,329.639587 237.158371,329.802002 
	C262.470795,330.208740 287.794189,329.935059 313.113159,329.934326 
	C314.496063,329.934296 315.878937,329.934326 318.585052,329.934326 
	C310.298920,335.946899 303.261169,341.186676 296.046387,346.170166 
	C294.695190,347.103516 292.626343,347.381104 290.904297,347.337860 
	C254.004044,346.410980 217.031265,349.597748 180.192245,344.117004 
	C161.623871,341.354462 142.734985,340.751923 123.993309,339.145996 
	C115.453369,338.414246 106.918983,337.617828 97.518188,336.773132 
	C100.620583,343.059387 103.317101,348.523254 105.703987,354.600342 
	C105.207741,355.032196 104.662048,355.419525 104.225052,355.904755 
	C103.167610,357.078827 102.160858,358.298553 101.133690,359.499878 
	C102.419838,360.375732 103.622070,361.426849 105.009468,362.091248 
	C107.971336,363.509583 111.029137,364.727539 114.006607,366.734528 
	C116.213715,369.799957 118.420815,372.865387 120.815163,376.190887 
	C123.501442,374.023712 125.378517,372.509338 127.970779,371.102875 
	C136.648666,374.049255 145.326538,376.995605 153.077347,380.097351 
	C144.484970,380.097351 135.892593,380.097351 127.300217,380.097351 
	C127.196663,380.615082 127.093109,381.132782 126.989555,381.650513 
	C133.443970,384.086487 139.786499,386.907349 146.391006,388.826904 
	C151.006653,390.168427 154.283905,392.257050 156.649948,396.541748 
	C158.087036,399.144165 160.814560,401.034058 162.510345,403.703247 
	C157.431549,407.406616 152.352768,411.109985 146.955246,415.045746 
	C163.509949,416.074677 178.991730,417.549530 194.497803,417.878754 
	C216.922501,418.354858 239.365479,418.079102 261.798676,417.889465 
	C264.225739,417.868927 266.720825,416.472534 269.039307,415.400574 
	C271.959503,414.050446 274.730408,412.377411 278.160461,410.467590 
	C280.882843,409.510681 284.334686,409.300262 286.205658,407.472046 
	C296.097015,397.806641 298.787567,384.468140 303.691895,372.225525 
	C301.526245,373.238251 299.859222,374.626007 298.021393,375.729218 
	C295.530731,377.224182 292.973694,379.532806 290.332947,379.697845 
	C276.918640,380.536377 263.468109,380.794983 250.419586,380.617218 
	C261.537354,376.030121 274.031006,374.648987 283.540497,366.289917 
	C285.348877,364.700317 287.492462,363.492035 290.478973,362.209808 
	C293.133057,362.183533 295.863312,361.740753 298.426758,362.209778 
	C305.850891,363.568146 310.210144,360.818542 311.960205,353.444489 
	C312.522369,351.075623 314.021484,348.945099 314.895386,346.631287 
	C317.741302,339.096100 320.496277,331.526550 323.948273,323.872559 
	C332.213837,318.324127 340.479401,312.775696 348.744965,307.227264 
	C348.623169,306.520874 348.501343,305.814484 348.379517,305.108124 
	C340.780365,304.353607 333.181213,303.599091 325.546387,301.991272 
	C325.691895,299.777344 325.837433,297.563446 325.967896,295.578735 
	C319.888306,297.143402 314.240692,298.401093 308.729462,300.101105 
	C306.127106,300.903839 303.786224,302.554321 300.475830,303.664490 
	C298.845917,303.442627 297.215485,303.024475 295.586182,303.028870 
	C276.898895,303.079010 258.104584,301.724335 238.892578,307.029083 
	C216.548706,306.769989 194.204834,306.510895 171.009247,306.134674 
M120.166656,254.044006 
	C117.469398,254.039200 114.772148,254.034409 111.227913,254.013885 
	C103.539223,253.007904 95.850525,252.001923 87.799019,250.308121 
	C75.229691,247.346939 62.660370,244.385773 49.421368,241.266830 
	C51.303425,247.808487 52.997238,253.695847 54.791649,259.932861 
	C57.397568,258.361694 59.149506,257.071136 61.091705,256.209442 
	C62.611301,255.535233 64.366768,255.392670 65.710564,255.617706 
	C60.779495,259.609650 55.848423,263.601562 51.060944,267.477264 
	C65.636711,269.416260 79.421349,271.250031 93.467903,273.750641 
	C97.885124,275.174042 102.210709,277.105621 106.737411,277.921844 
	C118.501381,280.042969 130.304413,282.138550 142.181549,283.399109 
	C163.657379,285.678406 185.165894,288.281311 206.720490,289.030701 
	C235.003769,290.014008 263.344879,289.360199 291.661102,289.349243 
	C298.479828,289.346588 305.322662,289.418427 312.111694,288.898560 
	C323.159546,288.052582 326.290131,284.371399 326.003326,273.558350 
	C325.981323,272.727814 325.893555,271.899017 326.649170,271.015564 
	C331.977570,269.869659 337.074677,268.621094 341.342224,264.573792 
	C344.609131,261.475555 348.910828,259.468475 352.851685,257.913116 
	C352.399780,281.087891 352.897858,304.350586 346.306580,327.281311 
	C353.152802,323.400696 359.751526,319.660400 366.670898,315.738342 
	C368.027039,320.737000 371.591125,321.853821 375.661194,321.612427 
	C385.434204,321.032806 395.194519,320.240051 404.960083,319.534851 
	C407.781891,319.331085 409.144257,317.805817 408.997986,314.993835 
	C408.039185,296.561310 407.457977,278.096527 405.909607,259.713348 
	C405.276764,252.200073 399.787079,246.625824 392.508636,245.253082 
	C380.267242,242.944305 367.941559,244.160751 356.086731,248.283569 
	C355.088867,248.630630 354.692352,250.706772 353.180023,251.999756 
	C344.796967,253.335587 336.413910,254.671432 327.915009,255.129990 
	C328.323669,250.855057 328.732300,246.580139 329.075256,242.992264 
	C319.894745,245.599304 310.441711,247.538391 301.574249,250.984421 
	C289.615479,255.631851 277.270935,256.578766 264.817139,256.442017 
	C216.886200,255.915649 168.958954,255.052292 120.166656,254.044006 
M257.499390,216.072021 
	C249.005447,216.058517 240.511261,215.997498 232.017609,216.041275 
	C213.700348,216.135681 195.234497,214.855148 177.101059,216.744339 
	C149.773987,219.591370 122.679268,224.668793 95.485786,228.798141 
	C96.963425,230.072845 98.379631,230.529602 99.829788,230.812164 
	C120.289787,234.798798 140.884918,237.185806 161.789780,237.050598 
	C176.259995,236.957001 190.733795,237.748489 205.208664,237.970673 
	C231.343750,238.371811 257.480286,238.775833 283.617462,238.891647 
	C292.084503,238.929169 300.586578,238.367004 309.011230,237.489609 
	C313.048401,237.069138 316.942444,235.274353 322.155579,233.730560 
	C319.442291,231.954895 318.119904,230.994415 316.711853,230.182434 
	C298.689667,219.789459 279.272369,215.127411 257.499390,216.072021 
z"/>
<path fill="#088408" opacity="1.000000" stroke="none" 
	d="
M204.487076,74.702263 
	C207.267471,73.707397 210.047852,72.712540 213.312042,71.770088 
	C213.795822,71.822495 214.027512,72.026054 214.027512,72.026054 
	C203.830093,78.030685 194.564621,86.204666 182.566360,88.212326 
	C176.713776,89.191635 170.387650,87.896431 164.354767,87.061035 
	C159.800339,86.430374 155.371185,84.895020 150.069916,83.556152 
	C149.657669,90.556259 149.389771,96.968719 148.826416,103.355118 
	C148.686478,104.941277 148.015488,107.245773 146.865601,107.854637 
	C138.838379,112.105034 130.621094,115.996414 121.623337,120.416039 
	C122.613434,106.230278 123.545219,92.879906 124.477905,79.516685 
	C105.710869,79.516685 87.535034,79.516685 68.680138,79.516685 
	C76.160866,73.973633 83.207771,68.302429 90.762878,63.417168 
	C93.150528,61.873276 96.886307,62.250252 100.023949,62.061726 
	C108.648750,61.543499 117.283539,61.191525 124.757843,60.829742 
	C128.333008,52.389671 131.603119,44.470093 135.081573,36.643112 
	C135.703522,35.243645 136.961853,33.747051 138.310715,33.112961 
	C146.352081,29.332771 154.506287,25.792582 163.206268,21.911451 
	C160.133514,28.686512 156.682373,34.592915 154.785065,40.962181 
	C152.919006,47.226505 152.629547,53.960484 151.680527,60.273758 
	C170.038147,63.963623 186.913986,72.401985 206.605865,71.054214 
	C205.324051,72.111076 204.750656,72.583839 203.588425,73.417206 
	C202.407928,73.969666 201.816254,74.161514 201.224594,74.353371 
	C201.251480,74.532997 201.278366,74.712631 201.305252,74.892258 
	C202.365860,74.828926 203.426468,74.765594 204.487076,74.702263 
z"/>
<path fill="#088408" opacity="1.000000" stroke="none" 
	d="
M311.665771,49.727692 
	C310.643799,52.196922 309.800110,54.320774 308.778107,56.893524 
	C316.641632,56.893524 324.040161,56.893524 331.438721,56.893524 
	C331.607971,57.229496 331.777252,57.565468 331.946503,57.901436 
	C324.256439,63.435936 316.568115,68.972885 308.868500,74.494019 
	C308.616791,74.674515 308.216370,74.833824 307.941193,74.768272 
	C300.695587,73.042091 299.340149,78.424316 297.967682,83.316299 
	C295.304504,92.808563 289.740570,99.080872 279.990997,101.779266 
	C275.434235,103.040443 271.193390,105.443115 265.572174,107.860474 
	C270.439362,96.343292 274.815613,85.987755 279.106384,75.834549 
	C265.192627,74.216530 251.635040,72.639931 236.492661,70.879036 
	C245.339813,64.470024 252.741180,58.637936 260.688599,53.681412 
	C262.679138,52.439976 266.447235,53.872349 269.359375,54.326145 
	C273.794678,55.017292 278.209564,55.860718 282.607086,56.765827 
	C285.688202,57.399982 287.371368,56.579403 288.480774,53.331192 
	C291.912231,43.284275 295.683563,33.351994 299.431885,23.416311 
	C299.984039,21.952675 300.814697,20.074409 302.046844,19.471188 
	C310.164368,15.496984 318.427155,11.819533 327.537506,7.634224 
	C322.070709,22.177179 316.957428,35.779747 311.665771,49.727692 
z"/>
<path fill="#FC080A" opacity="1.000000" stroke="none" 
	d="
M137.999878,160.052673 
	C147.709122,160.290833 156.918396,160.529007 166.127686,160.767181 
	C166.221024,161.333618 166.314362,161.900070 166.407700,162.466507 
	C158.896439,167.798447 151.405304,173.159378 143.841019,178.414978 
	C143.128113,178.910278 141.951904,178.882584 140.995758,178.862411 
	C125.875481,178.543411 110.757538,178.063828 95.635895,177.873352 
	C82.010643,177.701721 68.381523,177.837143 53.152828,177.837143 
	C56.993599,174.947968 60.023823,173.126541 62.494236,170.728424 
	C71.655373,161.835358 82.354576,158.965759 95.072151,159.833115 
	C109.154236,160.793518 123.352356,160.052689 137.999878,160.052673 
z"/>
<path fill="#FC0406" opacity="1.000000" stroke="none" 
	d="
M297.400330,136.428314 
	C293.070801,140.707993 288.175812,141.580292 282.577179,141.402435 
	C255.000168,140.526428 227.414337,139.927673 199.832077,139.214462 
	C199.404297,139.203400 198.981979,138.980911 197.853363,138.651978 
	C205.501175,133.104782 212.646866,127.827751 219.927032,122.743240 
	C221.011322,121.985977 222.727142,121.905960 224.152634,121.899200 
	C239.294006,121.827286 254.446503,121.472519 269.574341,121.921890 
	C284.124908,122.354118 298.650116,123.640663 313.684326,124.583038 
	C308.265808,128.517273 302.975739,132.358246 297.400330,136.428314 
z"/>
<path fill="#088408" opacity="1.000000" stroke="none" 
	d="
M213.678818,71.722046 
	C213.924225,71.488808 214.286652,71.356010 214.649078,71.223221 
	C214.632721,71.472221 214.616364,71.721214 214.313751,71.998138 
	C214.027512,72.026054 213.795822,71.822495 213.678818,71.722046 
z"/>
<path fill="#070585" opacity="1.000000" stroke="none" 
	d="
M328.030853,256.007263 
	C336.413910,254.671432 344.796967,253.335587 353.997437,251.959717 
	C355.581451,251.919693 356.348083,251.919693 357.434265,251.919693 
	C355.716400,253.774918 354.234344,255.375488 352.752258,256.976074 
	C348.910828,259.468475 344.609131,261.475555 341.342224,264.573792 
	C337.074677,268.621094 331.977570,269.869659 325.851990,271.080383 
	C320.639343,271.944214 316.245209,272.895996 311.804718,273.515442 
	C293.720856,276.038239 275.687103,279.596497 257.513397,280.624207 
	C235.766815,281.853943 213.873367,281.511139 192.085114,280.713562 
	C166.331863,279.770782 140.615372,277.723358 114.899857,275.914307 
	C107.638130,275.403473 100.435638,274.050507 93.205978,273.083801 
	C79.421349,271.250031 65.636711,269.416260 51.060944,267.477264 
	C55.848423,263.601562 60.779495,259.609650 66.238052,255.360535 
	C72.013489,250.951614 77.868439,250.434540 84.196198,251.914108 
	C85.381699,252.191299 86.833122,251.331223 88.161835,250.995956 
	C95.850525,252.001923 103.539223,253.007904 111.760910,254.392670 
	C114.877708,255.139862 117.461502,255.508286 120.447044,255.961212 
	C144.264709,260.676056 168.012527,262.226929 191.780029,262.868256 
	C214.069336,263.469727 236.391602,262.750122 258.689972,263.143951 
	C278.878021,263.500488 298.892242,262.069244 318.802551,258.968536 
	C321.955902,258.477448 324.958527,257.018646 328.030853,256.007263 
z"/>
<path fill="#050384" opacity="1.000000" stroke="none" 
	d="
M190.201447,325.088654 
	C185.662460,325.060669 181.123505,325.010742 176.584503,325.008514 
	C157.624680,324.999176 138.661346,325.203979 119.707298,324.872864 
	C114.533699,324.782440 109.387970,323.096710 103.698578,321.756104 
	C96.405624,317.509308 89.643555,313.649536 82.454292,309.545898 
	C86.583511,306.872559 90.396957,304.543304 94.042091,301.975128 
	C95.503311,300.945648 96.594292,299.390656 97.853790,298.074829 
	C98.181274,298.029846 98.612587,298.104187 98.821320,297.922638 
	C108.185692,289.777832 114.991264,297.202606 122.261032,301.763275 
	C122.678337,302.025055 123.038536,302.377869 124.096222,302.879517 
	C130.059875,304.612518 135.287674,307.130096 140.659225,307.487610 
	C151.001450,308.175934 161.425003,307.642059 172.272705,307.773010 
	C194.053757,307.959656 215.376938,308.001587 236.700043,307.976685 
	C237.733978,307.975494 238.767212,307.386932 239.800781,307.071899 
	C258.104584,301.724335 276.898895,303.079010 295.586182,303.028870 
	C297.215485,303.024475 298.845917,303.442627 301.342987,303.663696 
	C310.000793,303.390137 317.791412,303.117371 325.582062,302.844604 
	C333.181213,303.599091 340.780365,304.353607 348.379517,305.108124 
	C348.501343,305.814484 348.623169,306.520874 348.744965,307.227264 
	C340.479401,312.775696 332.213837,318.324127 323.402710,323.591034 
	C317.611908,322.572540 312.365875,321.201050 307.121521,321.207245 
	C282.987244,321.235687 258.845520,321.371490 234.723358,322.060791 
	C225.156525,322.334167 215.633545,324.142120 205.631531,325.132996 
	C200.182114,325.039307 195.191788,325.063965 190.201447,325.088654 
z"/>
<path fill="#F5F7F9" opacity="1.000000" stroke="none" 
	d="
M206.090607,325.251404 
	C215.633545,324.142120 225.156525,322.334167 234.723358,322.060791 
	C258.845520,321.371490 282.987244,321.235687 307.121521,321.207245 
	C312.365875,321.201050 317.611908,322.572540 323.071686,323.639893 
	C320.496277,331.526550 317.741302,339.096100 314.895386,346.631287 
	C314.021484,348.945099 312.522369,351.075623 311.960205,353.444489 
	C310.210144,360.818542 305.850891,363.568146 298.426758,362.209778 
	C295.863312,361.740753 293.133057,362.183533 290.150330,361.832397 
	C292.239471,359.534454 294.657227,357.613861 297.075012,355.693298 
	C292.194824,356.126617 287.858887,357.634644 283.466522,358.955109 
	C277.616333,360.713898 271.749847,363.648132 265.842255,363.771301 
	C241.551926,364.277740 217.241486,364.061707 192.942917,363.755676 
	C187.030807,363.681213 180.863037,363.096191 175.284454,361.289581 
	C159.214325,356.085236 143.352112,350.226776 127.492035,344.397247 
	C124.659286,343.356079 122.703651,343.621124 120.262741,345.280121 
	C115.664566,348.405396 110.779449,351.108490 106.013618,353.987122 
	C103.317101,348.523254 100.620583,343.059387 97.518188,336.773132 
	C106.918983,337.617828 115.453369,338.414246 123.993309,339.145996 
	C142.734985,340.751923 161.623871,341.354462 180.192245,344.117004 
	C217.031265,349.597748 254.004044,346.410980 290.904297,347.337860 
	C292.626343,347.381104 294.695190,347.103516 296.046387,346.170166 
	C303.261169,341.186676 310.298920,335.946899 318.585052,329.934326 
	C315.878937,329.934326 314.496063,329.934296 313.113159,329.934326 
	C287.794189,329.935059 262.470795,330.208740 237.158371,329.802002 
	C227.052048,329.639587 216.969849,327.975464 206.451324,326.661865 
	C206.047516,325.969635 206.069061,325.610504 206.090607,325.251404 
z"/>
<path fill="#FAFCFB" opacity="1.000000" stroke="none" 
	d="
M352.802002,257.444580 
	C354.234344,255.375488 355.716400,253.774918 357.434265,251.919693 
	C356.348083,251.919693 355.581451,251.919693 354.415649,251.949646 
	C354.692352,250.706772 355.088867,248.630630 356.086731,248.283569 
	C367.941559,244.160751 380.267242,242.944305 392.508636,245.253082 
	C399.787079,246.625824 405.276764,252.200073 405.909607,259.713348 
	C407.457977,278.096527 408.039185,296.561310 408.997986,314.993835 
	C409.144257,317.805817 407.781891,319.331085 404.960083,319.534851 
	C395.194519,320.240051 385.434204,321.032806 375.661194,321.612427 
	C371.591125,321.853821 368.027039,320.737000 366.670898,315.738342 
	C359.751526,319.660400 353.152802,323.400696 346.306580,327.281311 
	C352.897858,304.350586 352.399780,281.087891 352.802002,257.444580 
z"/>
<path fill="#F9FBFB" opacity="1.000000" stroke="none" 
	d="
M257.999207,216.072021 
	C279.272369,215.127411 298.689667,219.789459 316.711853,230.182434 
	C318.119904,230.994415 319.442291,231.954895 322.155579,233.730560 
	C316.942444,235.274353 313.048401,237.069138 309.011230,237.489609 
	C300.586578,238.367004 292.084503,238.929169 283.617462,238.891647 
	C257.480286,238.775833 231.343750,238.371811 205.208664,237.970673 
	C190.733795,237.748489 176.259995,236.957001 161.789780,237.050598 
	C140.884918,237.185806 120.289787,234.798798 99.829788,230.812164 
	C98.379631,230.529602 96.963425,230.072845 95.485786,228.798141 
	C122.679268,224.668793 149.773987,219.591370 177.101059,216.744339 
	C195.234497,214.855148 213.700348,216.135681 232.017609,216.041275 
	C240.511261,215.997498 249.005447,216.058517 257.999207,216.072021 
z"/>
<path fill="#060485" opacity="1.000000" stroke="none" 
	d="
M105.858803,354.293732 
	C110.779449,351.108490 115.664566,348.405396 120.262741,345.280121 
	C122.703651,343.621124 124.659286,343.356079 127.492035,344.397247 
	C143.352112,350.226776 159.214325,356.085236 175.284454,361.289581 
	C180.863037,363.096191 187.030807,363.681213 192.942917,363.755676 
	C217.241486,364.061707 241.551926,364.277740 265.842255,363.771301 
	C271.749847,363.648132 277.616333,360.713898 283.466522,358.955109 
	C287.858887,357.634644 292.194824,356.126617 297.075012,355.693298 
	C294.657227,357.613861 292.239471,359.534454 289.651550,361.781403 
	C287.492462,363.492035 285.348877,364.700317 283.540497,366.289917 
	C274.031006,374.648987 261.537354,376.030121 250.123276,380.955109 
	C249.826965,381.292999 249.661011,381.169220 249.274384,381.119171 
	C247.932373,381.300720 246.976990,381.532318 245.559372,381.854370 
	C229.157471,382.027893 213.089279,380.889404 197.315491,382.548950 
	C182.510300,384.106567 168.263733,383.868164 154.004425,379.941986 
	C145.326538,376.995605 136.648666,374.049255 127.364494,370.781006 
	C122.521347,368.981964 118.284485,367.504791 114.047623,366.027588 
	C111.029137,364.727539 107.971336,363.509583 105.009468,362.091248 
	C103.622070,361.426849 102.419838,360.375732 101.133682,359.499878 
	C102.160858,358.298553 103.167610,357.078827 104.225052,355.904755 
	C104.662048,355.419525 105.207741,355.032196 105.858803,354.293732 
z"/>
<path fill="#F8FAFA" opacity="1.000000" stroke="none" 
	d="
M153.540894,380.019653 
	C168.263733,383.868164 182.510300,384.106567 197.315491,382.548950 
	C213.089279,380.889404 229.157471,382.027893 245.936172,381.917938 
	C247.737152,381.650482 248.699081,381.409851 249.661011,381.169220 
	C249.661011,381.169220 249.826965,381.292999 249.928619,381.274872 
	C263.468109,380.794983 276.918640,380.536377 290.332947,379.697845 
	C292.973694,379.532806 295.530731,377.224182 298.021393,375.729218 
	C299.859222,374.626007 301.526245,373.238251 303.691895,372.225525 
	C298.787567,384.468140 296.097015,397.806641 286.205658,407.472046 
	C284.334686,409.300262 280.882843,409.510681 277.652344,410.365051 
	C280.810211,406.987610 284.476196,403.712738 287.969574,400.592041 
	C283.618103,400.592041 279.305878,400.673431 274.997467,400.578949 
	C244.169922,399.902893 213.341934,399.239136 182.517059,398.453918 
	C175.503815,398.275269 168.628479,398.155579 162.962372,403.244049 
	C160.814560,401.034058 158.087036,399.144165 156.649948,396.541748 
	C154.283905,392.257050 151.006653,390.168427 146.391006,388.826904 
	C139.786499,386.907349 133.443970,384.086487 126.989555,381.650513 
	C127.093109,381.132782 127.196663,380.615082 127.300217,380.097351 
	C135.892593,380.097351 144.484970,380.097351 153.540894,380.019653 
z"/>
<path fill="#070586" opacity="1.000000" stroke="none" 
	d="
M162.736359,403.473633 
	C168.628479,398.155579 175.503815,398.275269 182.517059,398.453918 
	C213.341934,399.239136 244.169922,399.902893 274.997467,400.578949 
	C279.305878,400.673431 283.618103,400.592041 287.969574,400.592041 
	C284.476196,403.712738 280.810211,406.987610 277.354980,410.553101 
	C274.730408,412.377411 271.959503,414.050446 269.039307,415.400574 
	C266.720825,416.472534 264.225739,417.868927 261.798676,417.889465 
	C239.365479,418.079102 216.922501,418.354858 194.497803,417.878754 
	C178.991730,417.549530 163.509949,416.074677 146.955246,415.045746 
	C152.352768,411.109985 157.431549,407.406616 162.736359,403.473633 
z"/>
<path fill="#F8FAFA" opacity="1.000000" stroke="none" 
	d="
M93.336945,273.417236 
	C100.435638,274.050507 107.638130,275.403473 114.899857,275.914307 
	C140.615372,277.723358 166.331863,279.770782 192.085114,280.713562 
	C213.873367,281.511139 235.766815,281.853943 257.513397,280.624207 
	C275.687103,279.596497 293.720856,276.038239 311.804718,273.515442 
	C316.245209,272.895996 320.639343,271.944214 325.445557,271.107330 
	C325.893555,271.899017 325.981323,272.727814 326.003326,273.558350 
	C326.290131,284.371399 323.159546,288.052582 312.111694,288.898560 
	C305.322662,289.418427 298.479828,289.346588 291.661102,289.349243 
	C263.344879,289.360199 235.003769,290.014008 206.720490,289.030701 
	C185.165894,288.281311 163.657379,285.678406 142.181549,283.399109 
	C130.304413,282.138550 118.501381,280.042969 106.737411,277.921844 
	C102.210709,277.105621 97.885124,275.174042 93.336945,273.417236 
z"/>
<path fill="#F6F8F9" opacity="1.000000" stroke="none" 
	d="
M327.972931,255.568634 
	C324.958527,257.018646 321.955902,258.477448 318.802551,258.968536 
	C298.892242,262.069244 278.878021,263.500488 258.689972,263.143951 
	C236.391602,262.750122 214.069336,263.469727 191.780029,262.868256 
	C168.012527,262.226929 144.264709,260.676056 120.519470,255.738525 
	C120.470207,255.059082 120.750267,254.686844 121.030327,254.314606 
	C168.958954,255.052292 216.886200,255.915649 264.817139,256.442017 
	C277.270935,256.578766 289.615479,255.631851 301.574249,250.984421 
	C310.441711,247.538391 319.894745,245.599304 329.075256,242.992264 
	C328.732300,246.580139 328.323669,250.855057 327.972931,255.568634 
z"/>
<path fill="#F4F6F9" opacity="1.000000" stroke="none" 
	d="
M97.446274,298.134369 
	C96.594292,299.390656 95.503311,300.945648 94.042091,301.975128 
	C90.396957,304.543304 86.583511,306.872559 82.454292,309.545898 
	C89.643555,313.649536 96.405624,317.509308 103.358055,321.682251 
	C100.418701,324.393707 97.288986,326.791992 94.152527,329.195435 
	C83.533417,317.036346 71.050827,306.672180 67.114174,290.374176 
	C77.073837,292.976776 87.056297,295.585358 97.446274,298.134369 
z"/>
<path fill="#F4F6F9" opacity="1.000000" stroke="none" 
	d="
M87.980423,250.652039 
	C86.833122,251.331223 85.381699,252.191299 84.196198,251.914108 
	C77.868439,250.434540 72.013489,250.951614 66.391495,255.058624 
	C64.366768,255.392670 62.611301,255.535233 61.091705,256.209442 
	C59.149506,257.071136 57.397568,258.361694 54.791649,259.932861 
	C52.997238,253.695847 51.303425,247.808487 49.421368,241.266830 
	C62.660370,244.385773 75.229691,247.346939 87.980423,250.652039 
z"/>
<path fill="#ECEEF4" opacity="1.000000" stroke="none" 
	d="
M171.814835,307.615051 
	C161.425003,307.642059 151.001450,308.175934 140.659225,307.487610 
	C135.287674,307.130096 130.059875,304.612518 124.408310,303.013306 
	C125.512962,302.699829 127.002876,302.121613 128.435730,302.239136 
	C138.668701,303.078430 148.890488,304.054932 159.114899,304.997772 
	C163.080902,305.363495 167.044540,305.754944 171.368317,306.418335 
	C171.613358,307.020081 171.642502,307.324432 171.814835,307.615051 
z"/>
<path fill="#D9DAEC" opacity="1.000000" stroke="none" 
	d="
M325.564209,302.417938 
	C317.791412,303.117371 310.000793,303.390137 301.768494,303.741821 
	C303.786224,302.554321 306.127106,300.903839 308.729462,300.101105 
	C314.240692,298.401093 319.888306,297.143402 325.967896,295.578735 
	C325.837433,297.563446 325.691895,299.777344 325.564209,302.417938 
z"/>
<path fill="#9294C8" opacity="1.000000" stroke="none" 
	d="
M172.272705,307.773010 
	C171.642502,307.324432 171.613358,307.020081 171.794189,306.476929 
	C194.204834,306.510895 216.548706,306.769989 239.346680,307.050476 
	C238.767212,307.386932 237.733978,307.975494 236.700043,307.976685 
	C215.376938,308.001587 194.053757,307.959656 172.272705,307.773010 
z"/>
<path fill="#F0F2F8" opacity="1.000000" stroke="none" 
	d="
M114.027115,366.381073 
	C118.284485,367.504791 122.521347,368.981964 127.006905,370.727051 
	C125.378517,372.509338 123.501442,374.023712 120.815163,376.190887 
	C118.420815,372.865387 116.213715,369.799957 114.027115,366.381073 
z"/>
<path fill="#B0AFDB" opacity="1.000000" stroke="none" 
	d="
M205.631531,325.133026 
	C206.069061,325.610504 206.047516,325.969635 206.039124,326.598602 
	C200.918350,326.492371 195.784424,326.116272 190.425964,325.414429 
	C195.191788,325.063965 200.182114,325.039307 205.631531,325.133026 
z"/>
<path fill="#C4C6E4" opacity="1.000000" stroke="none" 
	d="
M120.598495,254.179306 
	C120.750267,254.686844 120.470207,255.059082 120.117722,255.654022 
	C117.461502,255.508286 114.877708,255.139862 112.184402,254.400528 
	C114.772148,254.034409 117.469398,254.039200 120.598495,254.179306 
z"/>
<path fill="#FBFDFC" opacity="1.000000" stroke="none" 
	d="
M204.283966,74.417343 
	C203.426468,74.765594 202.365860,74.828926 201.305252,74.892258 
	C201.278366,74.712631 201.251480,74.532997 201.224594,74.353371 
	C201.816254,74.161514 202.407928,73.969666 203.323853,73.680145 
	C203.792358,73.765793 203.936615,73.949112 204.283966,74.417343 
z"/>
<path fill="#07059E" opacity="1.000000" stroke="none" 
	d="
M249.274384,381.119171 
	C248.699081,381.409851 247.737152,381.650482 246.398422,381.827515 
	C246.976990,381.532318 247.932373,381.300720 249.274384,381.119171 
z"/>
</svg>